<?xml version="1.0" encoding="UTF-8"?> <svg xmlns="http://www.w3.org/2000/svg" width="32" height="32" viewBox="0 0 32 32" fill="none"> <path fill-rule="evenodd" clip-rule="evenodd" d="M3 0C1.34315 0 0 1.34315 0 3V29C0 30.6569 1.34315 32 3 32H29C30.6569 32 32 30.6569 32 29V3C32 1.34315 30.6569 0 29 0H3ZM2 3C2 2.44772 2.44772 2 3 2H29C29.5523 2 30 2.44772 30 3V29C30 29.5523 29.5523 30 29 30H3C2.44772 30 2 29.5523 2 29V3ZM14.2 9.4C12.8815 8.41115 11 9.35191 11 11V22C11 23.6481 12.8815 24.5889 14.2 23.6L21.5333 18.1C22.6 17.3 22.6 15.7 21.5333 14.9L14.2 9.4ZM13 11L20.3333 16.5L13 22V11Z" fill="#B6AFAB"></path> </svg> 