<?xml version="1.0" encoding="UTF-8"?> <svg xmlns="http://www.w3.org/2000/svg" width="64" height="64" viewBox="0 0 64 64" fill="none"> <path fill-rule="evenodd" clip-rule="evenodd" d="M61.5809 54.7316L45.4173 38.568C48.0505 34.6017 49.4375 30.0086 49.4375 25.2188C49.4375 11.8645 38.573 1 25.2188 1C11.8645 1 1 11.8645 1 25.2188C1 38.573 11.8645 49.4375 25.2188 49.4375C30.0087 49.4375 34.6018 48.0504 38.568 45.4174L43.0358 49.8852L43.0377 49.8871L54.7315 61.5809C55.6467 62.496 56.8628 63 58.1562 63C59.4497 63 60.6658 62.496 61.5805 61.5813C62.4959 60.6666 63 59.4504 63 58.1562C63 56.8621 62.4959 55.6459 61.5809 54.7316ZM37.9985 42.8654L37.9983 42.8656C34.2605 45.5805 29.8415 47.0156 25.2188 47.0156C13.2 47.0156 3.42188 37.2375 3.42188 25.2188C3.42188 13.2 13.2 3.42188 25.2188 3.42188C37.2375 3.42188 47.0156 13.2 47.0156 25.2188C47.0156 29.8415 45.5805 34.2605 42.8655 37.9984C41.5072 39.8696 39.8698 41.5072 37.9985 42.8654ZM40.539 43.9632C41.7924 42.9379 42.938 41.7922 43.9632 40.539L47.3988 43.9746C46.354 45.2077 45.2077 46.3541 43.9746 47.3988L40.539 43.9632ZM59.8684 59.8684C59.4107 60.3261 58.8026 60.5781 58.1562 60.5781C57.5099 60.5781 56.9018 60.3261 56.4441 59.8684L45.6916 49.1159C46.9179 48.0634 48.0634 46.918 49.1158 45.6917L59.8686 56.4446C60.3261 56.9016 60.5781 57.5094 60.5781 58.1562C60.5781 58.8031 60.3261 59.4109 59.8684 59.8684ZM38.5391 24.0078C37.8706 24.0078 37.3281 24.5503 37.3281 25.2188C37.3281 25.8872 37.8706 26.4297 38.5391 26.4297C39.2075 26.4297 39.75 25.8872 39.75 25.2188C39.75 24.5503 39.2075 24.0078 38.5391 24.0078ZM33.5385 13.3104C35.9308 14.9862 37.7464 17.3066 38.7891 20.0206C39.029 20.6449 38.7173 21.3454 38.0931 21.5853C37.9503 21.6402 37.8034 21.6662 37.6591 21.6662C37.1723 21.6662 36.7135 21.3708 36.5284 20.8893C34.7405 16.2358 30.1956 13.1094 25.2188 13.1094C24.5501 13.1094 24.0078 12.5671 24.0078 11.8984C24.0078 11.2298 24.5501 10.6875 25.2188 10.6875C28.2123 10.6875 31.0893 11.5945 33.5385 13.3104Z" fill="#C2AC95"></path> <path d="M45.4173 38.568L44.7925 38.1532L44.4531 38.6644L44.887 39.0983L45.4173 38.568ZM61.5809 54.7316L61.0506 55.2619L61.0508 55.2621L61.5809 54.7316ZM38.568 45.4174L39.0983 44.8871L38.6644 44.4532L38.1532 44.7926L38.568 45.4174ZM43.0358 49.8852L43.5671 49.3559L43.5661 49.3549L43.0358 49.8852ZM43.0377 49.8871L42.5063 50.4164L42.5074 50.4175L43.0377 49.8871ZM54.7315 61.5809L54.2011 62.1112L54.2012 62.1113L54.7315 61.5809ZM61.5805 61.5813L61.0504 61.0507L61.0502 61.0509L61.5805 61.5813ZM37.9983 42.8656L38.439 43.4724L38.4868 43.4377L38.5286 43.396L37.9983 42.8656ZM37.9985 42.8654L37.558 42.2584L37.51 42.2932L37.4682 42.335L37.9985 42.8654ZM42.8655 37.9984L42.2587 37.5576L42.2585 37.5578L42.8655 37.9984ZM43.9632 40.539L44.4935 40.0087L43.9075 39.4227L43.3827 40.0642L43.9632 40.539ZM40.539 43.9632L40.0642 43.3827L39.4227 43.9075L40.0087 44.4935L40.539 43.9632ZM47.3988 43.9746L47.971 44.4594L48.4174 43.9326L47.9291 43.4443L47.3988 43.9746ZM43.9746 47.3988L43.4443 47.9291L43.9325 48.4174L44.4594 47.971L43.9746 47.3988ZM59.8684 59.8684L59.3382 59.3379L59.3381 59.3381L59.8684 59.8684ZM56.4441 59.8684L55.9138 60.3987H55.9138L56.4441 59.8684ZM45.6916 49.1159L45.2031 48.5467L44.5889 49.0739L45.1613 49.6462L45.6916 49.1159ZM49.1158 45.6917L49.6461 45.1614L49.0737 44.589L48.5466 45.2033L49.1158 45.6917ZM59.8686 56.4446L59.3383 56.9749L59.3386 56.9752L59.8686 56.4446ZM38.7891 20.0206L39.4892 19.7516L38.7891 20.0206ZM33.5385 13.3104L33.1082 13.9246L33.1082 13.9247L33.5385 13.3104ZM38.0931 21.5853L38.3621 22.2854L38.3621 22.2854L38.0931 21.5853ZM36.5284 20.8893L35.8283 21.1583L35.8283 21.1583L36.5284 20.8893ZM44.887 39.0983L61.0506 55.2619L62.1112 54.2013L45.9476 38.0377L44.887 39.0983ZM48.6875 25.2188C48.6875 29.8614 47.3438 34.3101 44.7925 38.1532L46.0421 38.9828C48.7571 34.8933 50.1875 30.1558 50.1875 25.2188H48.6875ZM25.2188 1.75C38.1588 1.75 48.6875 12.2787 48.6875 25.2188H50.1875C50.1875 11.4503 38.9872 0.25 25.2188 0.25V1.75ZM1.75 25.2188C1.75 12.2787 12.2787 1.75 25.2188 1.75V0.25C11.4503 0.25 0.25 11.4503 0.25 25.2188H1.75ZM25.2188 48.6875C12.2787 48.6875 1.75 38.1588 1.75 25.2188H0.25C0.25 38.9872 11.4503 50.1875 25.2188 50.1875V48.6875ZM38.1532 44.7926C34.3102 47.3437 29.8615 48.6875 25.2188 48.6875V50.1875C30.156 50.1875 34.8934 48.757 38.9828 46.0423L38.1532 44.7926ZM43.5661 49.3549L39.0983 44.8871L38.0377 45.9478L42.5054 50.4155L43.5661 49.3549ZM43.5691 49.3578L43.5671 49.3559L42.5044 50.4145L42.5063 50.4164L43.5691 49.3578ZM55.2618 61.0506L43.568 49.3568L42.5074 50.4175L54.2011 62.1112L55.2618 61.0506ZM58.1562 62.25C57.0619 62.25 56.0365 61.8251 55.2618 61.0505L54.2012 62.1113C55.2569 63.1669 56.6638 63.75 58.1562 63.75V62.25ZM61.0502 61.0509C60.276 61.8251 59.2506 62.25 58.1562 62.25V63.75C59.6487 63.75 61.0556 63.1669 62.1109 62.1116L61.0502 61.0509ZM62.25 58.1562C62.25 59.2514 61.825 60.2768 61.0504 61.0507L62.1107 62.1118C63.1668 61.0565 63.75 59.6494 63.75 58.1562H62.25ZM61.0508 55.2621C61.825 56.0357 62.25 57.0611 62.25 58.1562H63.75C63.75 56.6631 63.1668 55.256 62.111 54.2011L61.0508 55.2621ZM38.5286 43.396L38.5288 43.3957L37.4682 42.335L37.4679 42.3353L38.5286 43.396ZM25.2188 47.7656C29.9998 47.7656 34.573 46.2805 38.439 43.4724L37.5575 42.2588C33.9479 44.8806 29.6833 46.2656 25.2188 46.2656V47.7656ZM2.67188 25.2188C2.67188 37.6518 12.7857 47.7656 25.2188 47.7656V46.2656C13.6142 46.2656 4.17188 36.8233 4.17188 25.2188H2.67188ZM25.2188 2.67188C12.7857 2.67188 2.67188 12.7857 2.67188 25.2188H4.17188C4.17188 13.6142 13.6142 4.17188 25.2188 4.17188V2.67188ZM47.7656 25.2188C47.7656 12.7857 37.6518 2.67188 25.2188 2.67188V4.17188C36.8233 4.17188 46.2656 13.6142 46.2656 25.2188H47.7656ZM43.4723 38.4391C46.2805 34.573 47.7656 29.9998 47.7656 25.2188H46.2656C46.2656 29.6832 44.8806 33.9479 42.2587 37.5576L43.4723 38.4391ZM38.439 43.4724C40.3742 42.0678 42.0678 40.3741 43.4725 38.439L42.2585 37.5578C40.9466 39.3652 39.3653 40.9466 37.558 42.2584L38.439 43.4724ZM43.3827 40.0642C42.3891 41.2787 41.2788 42.389 40.0642 43.3827L41.0139 44.5437C42.3059 43.4868 43.4869 42.3058 44.5437 41.0139L43.3827 40.0642ZM47.9291 43.4443L44.4935 40.0087L43.4329 41.0694L46.8684 44.5049L47.9291 43.4443ZM44.4594 47.971C45.724 46.8996 46.8995 45.724 47.971 44.4594L46.8265 43.4898C45.8084 44.6914 44.6914 45.8086 43.4898 46.8265L44.4594 47.971ZM40.0087 44.4935L43.4443 47.9291L44.5049 46.8684L41.0694 43.4329L40.0087 44.4935ZM58.1562 61.3281C59.0018 61.3281 59.8005 60.9969 60.3987 60.3987L59.3381 59.3381C59.0208 59.6553 58.6035 59.8281 58.1562 59.8281V61.3281ZM55.9138 60.3987C56.512 60.9969 57.3107 61.3281 58.1562 61.3281V59.8281C57.709 59.8281 57.2917 59.6553 56.9744 59.3381L55.9138 60.3987ZM45.1613 49.6462L55.9138 60.3987L56.9744 59.3381L46.2219 48.5855L45.1613 49.6462ZM48.5466 45.2033C47.5191 46.4007 46.4006 47.5191 45.2031 48.5467L46.18 49.685C47.4352 48.6078 48.6078 47.4354 49.6849 46.1801L48.5466 45.2033ZM60.399 55.9143L49.6461 45.1614L48.5854 46.222L59.3383 56.9749L60.399 55.9143ZM61.3281 58.1562C61.3281 57.3103 60.997 56.5117 60.3987 55.914L59.3386 56.9752C59.6553 57.2915 59.8281 57.7084 59.8281 58.1562H61.3281ZM60.3986 60.3989C60.9969 59.8008 61.3281 59.0023 61.3281 58.1562H59.8281C59.8281 58.604 59.6553 59.021 59.3382 59.3379L60.3986 60.3989ZM38.0781 25.2188C38.0781 24.9645 38.2848 24.7578 38.5391 24.7578V23.2578C37.4564 23.2578 36.5781 24.1361 36.5781 25.2188H38.0781ZM38.5391 25.6797C38.2848 25.6797 38.0781 25.473 38.0781 25.2188H36.5781C36.5781 26.3014 37.4564 27.1797 38.5391 27.1797V25.6797ZM39 25.2188C39 25.473 38.7933 25.6797 38.5391 25.6797V27.1797C39.6217 27.1797 40.5 26.3014 40.5 25.2188H39ZM38.5391 24.7578C38.7933 24.7578 39 24.9645 39 25.2188H40.5C40.5 24.1361 39.6217 23.2578 38.5391 23.2578V24.7578ZM39.4892 19.7516C38.3927 16.8976 36.4828 14.4572 33.9688 12.6961L33.1082 13.9247C35.3788 15.5152 37.1001 17.7157 38.089 20.2895L39.4892 19.7516ZM38.3621 22.2854C39.3729 21.897 39.8777 20.7626 39.4892 19.7516L38.089 20.2895C38.1803 20.5272 38.0617 20.7939 37.824 20.8852L38.3621 22.2854ZM37.6591 22.4162C37.894 22.4162 38.1321 22.3738 38.3621 22.2854L37.8241 20.8852C37.7685 20.9066 37.7129 20.9162 37.6591 20.9162V22.4162ZM35.8283 21.1583C36.1284 21.939 36.8721 22.4162 37.6591 22.4162V20.9162C37.4724 20.9162 37.2985 20.8025 37.2285 20.6202L35.8283 21.1583ZM25.2188 13.8594C29.8845 13.8594 34.1515 16.7939 35.8283 21.1583L37.2285 20.6203C35.3295 15.6777 30.5067 12.3594 25.2188 12.3594V13.8594ZM23.2578 11.8984C23.2578 12.9813 24.1359 13.8594 25.2188 13.8594V12.3594C24.9643 12.3594 24.7578 12.1529 24.7578 11.8984H23.2578ZM25.2188 9.9375C24.1359 9.9375 23.2578 10.8155 23.2578 11.8984H24.7578C24.7578 11.644 24.9643 11.4375 25.2188 11.4375V9.9375ZM33.9688 12.6961C31.3933 10.8918 28.3661 9.9375 25.2188 9.9375V11.4375C28.0585 11.4375 30.7852 12.2972 33.1082 13.9246L33.9688 12.6961Z" fill="#C2AC95"></path> </svg> 