<?xml version="1.0" encoding="UTF-8"?> <svg xmlns="http://www.w3.org/2000/svg" width="56" height="72" viewBox="0 0 56 72" fill="none"> <path fill-rule="evenodd" clip-rule="evenodd" d="M53.8726 19.0645L37.129 2.32097C36.7093 1.90172 36.2111 1.56927 35.6629 1.34261C35.1146 1.11596 34.5271 0.999535 33.9339 1H5.51613C4.31838 1 3.16968 1.47581 2.32274 2.32274C1.4758 3.16968 1 4.31838 1 5.51613V66.4839C1 67.6816 1.4758 68.8303 2.32274 69.6773C3.16968 70.5242 4.31838 71 5.51613 71H50.6774C51.8752 71 53.0239 70.5242 53.8708 69.6773C54.7177 68.8303 55.1936 67.6816 55.1936 66.4839V22.2597C55.194 21.6664 55.0776 21.0789 54.8509 20.5307C54.6243 19.9824 54.2918 19.4842 53.8726 19.0645ZM37.129 8.71129L47.4823 19.0645H37.129V8.71129ZM5.51613 66.4839V5.51613H32.6129V19.0645C32.6129 20.2623 33.0887 21.411 33.9356 22.2579C34.7826 23.1048 35.9313 23.5806 37.129 23.5806H50.6774V66.4839H5.51613ZM45.0264 33.7427H26.9619C26.3631 33.7427 25.7887 33.9806 25.3652 34.404C24.9418 34.8275 24.7039 35.4018 24.7039 36.0007C24.7039 36.5996 24.9418 37.1739 25.3652 37.5974C25.7887 38.0209 26.3631 38.2588 26.9619 38.2588H45.0264C45.6253 38.2588 46.1997 38.0209 46.6231 37.5974C47.0466 37.1739 47.2845 36.5996 47.2845 36.0007C47.2845 35.4018 47.0466 34.8275 46.6231 34.404C46.1997 33.9806 45.6253 33.7427 45.0264 33.7427ZM13.4144 33.9329L16.9935 30.3539C17.4172 29.9301 17.9918 29.6921 18.5911 29.6921C19.1903 29.6921 19.7649 29.9301 20.1886 30.3539C20.6123 30.7776 20.8504 31.3522 20.8504 31.9514C20.8504 32.5506 20.6123 33.1253 20.1886 33.549L14.2161 39.5216C14.1111 39.6274 13.9862 39.7114 13.8486 39.7687C13.7111 39.826 13.5635 39.8556 13.4144 39.8556C13.2654 39.8556 13.1178 39.826 12.9802 39.7687C12.8427 39.7114 12.7178 39.6274 12.6128 39.5216L10.0273 36.9361C9.60364 36.5124 9.3656 35.9377 9.3656 35.3385C9.3656 34.7393 9.60364 34.1647 10.0273 33.741C10.451 33.3172 11.0257 33.0792 11.6249 33.0792C12.2241 33.0792 12.7988 33.3172 13.2225 33.741L13.4144 33.9329ZM45.0264 51.8049H26.9619C26.3631 51.8049 25.7887 52.0428 25.3652 52.4663C24.9418 52.8897 24.7039 53.4641 24.7039 54.063C24.7039 54.6618 24.9418 55.2362 25.3652 55.6596C25.7887 56.0831 26.3631 56.321 26.9619 56.321H45.0264C45.6253 56.321 46.1997 56.0831 46.6231 55.6596C47.0466 55.2362 47.2845 54.6618 47.2845 54.063C47.2845 53.4641 47.0466 52.8897 46.6231 52.4663C46.1997 52.0428 45.6253 51.8049 45.0264 51.8049ZM13.4144 51.9986L16.9935 48.4196C17.4172 47.9958 17.9918 47.7578 18.5911 47.7578C19.1903 47.7578 19.7649 47.9958 20.1886 48.4196C20.6123 48.8433 20.8504 49.4179 20.8504 50.0171C20.8504 50.6163 20.6123 51.191 20.1886 51.6147L14.2161 57.5873C14.1111 57.6931 13.9862 57.7771 13.8486 57.8344C13.7111 57.8917 13.5635 57.9213 13.4144 57.9213C13.2654 57.9213 13.1178 57.8917 12.9802 57.8344C12.8427 57.7771 12.7178 57.6931 12.6128 57.5873L10.0273 55.0018C9.60364 54.5781 9.3656 54.0034 9.3656 53.4042C9.3656 52.805 9.60364 52.2304 10.0273 51.8066C10.451 51.3829 11.0257 51.1449 11.6249 51.1449C12.2241 51.1449 12.7988 51.3829 13.2225 51.8066L13.4144 51.9986Z" fill="#C2AC95"></path> <path d="M37.129 2.32097L37.3058 2.14419L37.3057 2.14409L37.129 2.32097ZM53.8726 19.0645L54.0495 18.8878L54.0494 18.8877L53.8726 19.0645ZM35.6629 1.34261L35.7584 1.11158L35.6629 1.34261ZM33.9339 1V1.25L33.9341 1.25L33.9339 1ZM2.32274 2.32274L2.14597 2.14597L2.32274 2.32274ZM2.32274 69.6773L2.14597 69.854L2.32274 69.6773ZM55.1936 22.2597L54.9436 22.2595V22.2597H55.1936ZM54.8509 20.5307L54.6199 20.6262L54.8509 20.5307ZM47.4823 19.0645V19.3145H48.0858L47.659 18.8877L47.4823 19.0645ZM37.129 8.71129L37.3058 8.53452L36.879 8.10774V8.71129H37.129ZM37.129 19.0645H36.879V19.3145H37.129V19.0645ZM5.51613 5.51613V5.26613H5.26613V5.51613H5.51613ZM5.51613 66.4839H5.26613V66.7339H5.51613V66.4839ZM32.6129 5.51613H32.8629V5.26613H32.6129V5.51613ZM33.9356 22.2579L33.7589 22.4347L33.9356 22.2579ZM50.6774 23.5806H50.9274V23.3306H50.6774V23.5806ZM50.6774 66.4839V66.7339H50.9274V66.4839H50.6774ZM25.3652 34.404L25.1885 34.2272L25.3652 34.404ZM25.3652 37.5974L25.1885 37.7742L25.3652 37.5974ZM16.9935 30.3539L17.1702 30.5306H17.1702L16.9935 30.3539ZM13.4144 33.9329L13.2377 34.1097L13.4144 34.2864L13.5912 34.1097L13.4144 33.9329ZM20.1886 30.3539L20.0119 30.5306L20.1886 30.3539ZM20.1886 33.549L20.3654 33.7258L20.1886 33.549ZM14.2161 39.5216L14.0393 39.3448L14.0386 39.3455L14.2161 39.5216ZM12.9802 39.7687L13.0764 39.538H13.0764L12.9802 39.7687ZM12.6128 39.5216L12.7903 39.3455L12.7896 39.3448L12.6128 39.5216ZM10.0273 36.9361L9.85056 37.1129L10.0273 36.9361ZM10.0273 33.741L10.2041 33.9177H10.2041L10.0273 33.741ZM11.6249 33.0792V32.8292H11.6249L11.6249 33.0792ZM13.2225 33.741L13.3993 33.5642L13.2225 33.741ZM25.3652 52.4663L25.1885 52.2895L25.3652 52.4663ZM25.3652 55.6596L25.1885 55.8364L25.3652 55.6596ZM16.9935 48.4196L16.8167 48.2428H16.8167L16.9935 48.4196ZM13.4144 51.9986L13.2377 52.1754L13.4144 52.3521L13.5912 52.1754L13.4144 51.9986ZM20.1886 48.4196L20.3654 48.2428L20.1886 48.4196ZM20.1886 51.6147L20.3654 51.7915L20.1886 51.6147ZM14.2161 57.5873L14.0393 57.4105L14.0386 57.4112L14.2161 57.5873ZM12.9802 57.8344L13.0764 57.6037H13.0764L12.9802 57.8344ZM12.6128 57.5873L12.7903 57.4112L12.7896 57.4105L12.6128 57.5873ZM10.0273 55.0018L9.85056 55.1786L10.0273 55.0018ZM10.0273 51.8066L9.85057 51.6299H9.85056L10.0273 51.8066ZM13.2225 51.8066L13.0457 51.9834H13.0457L13.2225 51.8066ZM36.9523 2.49775L53.6958 19.2413L54.0494 18.8877L37.3058 2.14419L36.9523 2.49775ZM35.5674 1.57365C36.0852 1.78775 36.5559 2.1018 36.9524 2.49784L37.3057 2.14409C36.8628 1.70163 36.337 1.35078 35.7584 1.11158L35.5674 1.57365ZM33.9341 1.25C34.4945 1.24956 35.0495 1.35954 35.5674 1.57365L35.7584 1.11158C35.1798 0.872374 34.5598 0.749509 33.9337 0.750001L33.9341 1.25ZM5.51613 1.25H33.9339V0.750001H5.51613V1.25ZM2.49952 2.49952C3.29957 1.69947 4.38468 1.25 5.51613 1.25V0.750001C4.25207 0.750001 3.03979 1.25215 2.14597 2.14597L2.49952 2.49952ZM1.25 5.51613C1.25 4.38468 1.69947 3.29958 2.49952 2.49952L2.14597 2.14597C1.25214 3.03979 0.75 4.25207 0.75 5.51613H1.25ZM1.25 66.4839V5.51613H0.75V66.4839H1.25ZM2.49952 69.5005C1.69947 68.7004 1.25 67.6153 1.25 66.4839H0.75C0.75 67.7479 1.25214 68.9602 2.14597 69.854L2.49952 69.5005ZM5.51613 70.75C4.38468 70.75 3.29957 70.3005 2.49952 69.5005L2.14597 69.854C3.03979 70.7478 4.25207 71.25 5.51613 71.25V70.75ZM50.6774 70.75H5.51613V71.25H50.6774V70.75ZM53.694 69.5005C52.894 70.3005 51.8089 70.75 50.6774 70.75V71.25C51.9415 71.25 53.1538 70.7478 54.0476 69.854L53.694 69.5005ZM54.9436 66.4839C54.9436 67.6153 54.4941 68.7004 53.694 69.5005L54.0476 69.854C54.9414 68.9602 55.4436 67.7479 55.4436 66.4839H54.9436ZM54.9436 22.2597V66.4839H55.4436V22.2597H54.9436ZM54.6199 20.6262C54.834 21.1441 54.944 21.6991 54.9436 22.2595L55.4436 22.2599C55.444 21.6338 55.3212 21.0138 55.082 20.4352L54.6199 20.6262ZM53.6957 19.2412C54.0918 19.6377 54.4058 20.1083 54.6199 20.6262L55.082 20.4352C54.8428 19.8566 54.4919 19.3308 54.0495 18.8878L53.6957 19.2412ZM47.659 18.8877L37.3058 8.53452L36.9523 8.88807L47.3055 19.2413L47.659 18.8877ZM37.129 19.3145H47.4823V18.8145H37.129V19.3145ZM36.879 8.71129V19.0645H37.379V8.71129H36.879ZM5.26613 5.51613V66.4839H5.76613V5.51613H5.26613ZM32.6129 5.26613H5.51613V5.76613H32.6129V5.26613ZM32.8629 19.0645V5.51613H32.3629V19.0645H32.8629ZM34.1124 22.0811C33.3124 21.2811 32.8629 20.196 32.8629 19.0645H32.3629C32.3629 20.3286 32.865 21.5409 33.7589 22.4347L34.1124 22.0811ZM37.129 23.3306C35.9976 23.3306 34.9125 22.8812 34.1124 22.0811L33.7589 22.4347C34.6527 23.3285 35.865 23.8306 37.129 23.8306V23.3306ZM50.6774 23.3306H37.129V23.8306H50.6774V23.3306ZM50.9274 66.4839V23.5806H50.4274V66.4839H50.9274ZM5.51613 66.7339H50.6774V66.2339H5.51613V66.7339ZM26.9619 33.9927H45.0264V33.4927H26.9619V33.9927ZM25.542 34.5808C25.9186 34.2042 26.4294 33.9927 26.9619 33.9927V33.4927C26.2967 33.4927 25.6588 33.7569 25.1885 34.2272L25.542 34.5808ZM24.9539 36.0007C24.9539 35.4681 25.1654 34.9574 25.542 34.5808L25.1885 34.2272C24.7181 34.6976 24.4539 35.3355 24.4539 36.0007H24.9539ZM25.542 37.4206C25.1654 37.044 24.9539 36.5333 24.9539 36.0007H24.4539C24.4539 36.6659 24.7181 37.3038 25.1885 37.7742L25.542 37.4206ZM26.9619 38.0088C26.4294 38.0088 25.9186 37.7972 25.542 37.4206L25.1885 37.7742C25.6588 38.2445 26.2967 38.5088 26.9619 38.5088V38.0088ZM45.0264 38.0088H26.9619V38.5088H45.0264V38.0088ZM46.4464 37.4206C46.0698 37.7972 45.559 38.0088 45.0264 38.0088V38.5088C45.6916 38.5088 46.3296 38.2445 46.7999 37.7742L46.4464 37.4206ZM47.0345 36.0007C47.0345 36.5333 46.8229 37.044 46.4464 37.4206L46.7999 37.7742C47.2703 37.3038 47.5345 36.6659 47.5345 36.0007H47.0345ZM46.4464 34.5808C46.8229 34.9574 47.0345 35.4681 47.0345 36.0007H47.5345C47.5345 35.3355 47.2703 34.6976 46.7999 34.2272L46.4464 34.5808ZM45.0264 33.9927C45.559 33.9927 46.0698 34.2042 46.4464 34.5808L46.7999 34.2272C46.3296 33.7569 45.6916 33.4927 45.0264 33.4927V33.9927ZM16.8167 30.1771L13.2377 33.7561L13.5912 34.1097L17.1702 30.5306L16.8167 30.1771ZM18.5911 29.4421C17.9255 29.4421 17.2873 29.7065 16.8167 30.1771L17.1702 30.5306C17.5471 30.1538 18.0581 29.9421 18.5911 29.9421V29.4421ZM20.3654 30.1771C19.8948 29.7065 19.2566 29.4421 18.5911 29.4421V29.9421C19.124 29.9421 19.635 30.1538 20.0119 30.5306L20.3654 30.1771ZM21.1004 31.9514C21.1004 31.2859 20.836 30.6477 20.3654 30.1771L20.0119 30.5306C20.3887 30.9075 20.6004 31.4185 20.6004 31.9514H21.1004ZM20.3654 33.7258C20.836 33.2552 21.1004 32.6169 21.1004 31.9514H20.6004C20.6004 32.4843 20.3887 32.9954 20.0119 33.3722L20.3654 33.7258ZM14.3928 39.6984L20.3654 33.7258L20.0119 33.3722L14.0393 39.3448L14.3928 39.6984ZM13.9448 39.9995C14.1128 39.9295 14.2654 39.8269 14.3935 39.6976L14.0386 39.3455C13.9568 39.4279 13.8596 39.4933 13.7525 39.538L13.9448 39.9995ZM13.4144 40.1056C13.5965 40.1056 13.7767 40.0695 13.9448 39.9995L13.7525 39.538C13.6454 39.5826 13.5305 39.6056 13.4144 39.6056V40.1056ZM12.8841 39.9995C13.0521 40.0695 13.2324 40.1056 13.4144 40.1056V39.6056C13.2984 39.6056 13.1835 39.5826 13.0764 39.538L12.8841 39.9995ZM12.4353 39.6976C12.5635 39.8269 12.716 39.9295 12.8841 39.9995L13.0764 39.538C12.9693 39.4933 12.872 39.4279 12.7903 39.3455L12.4353 39.6976ZM9.85056 37.1129L12.4361 39.6984L12.7896 39.3448L10.2041 36.7593L9.85056 37.1129ZM9.1156 35.3385C9.1156 36.004 9.37998 36.6423 9.85056 37.1129L10.2041 36.7593C9.8273 36.3825 9.6156 35.8714 9.6156 35.3385H9.1156ZM9.85057 33.5642C9.37998 34.0348 9.1156 34.673 9.1156 35.3385H9.6156C9.6156 34.8056 9.8273 34.2945 10.2041 33.9177L9.85057 33.5642ZM11.6249 32.8292C10.9594 32.8292 10.3212 33.0936 9.85056 33.5642L10.2041 33.9177C10.5809 33.5409 11.092 33.3292 11.6249 33.3292L11.6249 32.8292ZM13.3993 33.5642C12.9287 33.0936 12.2904 32.8292 11.6249 32.8292V33.3292C12.1578 33.3292 12.6689 33.5409 13.0457 33.9177L13.3993 33.5642ZM13.5912 33.7561L13.3993 33.5642L13.0457 33.9177L13.2377 34.1097L13.5912 33.7561ZM26.9619 52.0549H45.0264V51.5549H26.9619V52.0549ZM25.542 52.643C25.9186 52.2664 26.4294 52.0549 26.9619 52.0549V51.5549C26.2967 51.5549 25.6588 51.8191 25.1885 52.2895L25.542 52.643ZM24.9539 54.063C24.9539 53.5304 25.1654 53.0196 25.542 52.643L25.1885 52.2895C24.7181 52.7598 24.4539 53.3978 24.4539 54.063H24.9539ZM25.542 55.4829C25.1654 55.1063 24.9539 54.5955 24.9539 54.063H24.4539C24.4539 54.7281 24.7181 55.3661 25.1885 55.8364L25.542 55.4829ZM26.9619 56.071C26.4294 56.071 25.9186 55.8595 25.542 55.4829L25.1885 55.8364C25.6588 56.3068 26.2967 56.571 26.9619 56.571V56.071ZM45.0264 56.071H26.9619V56.571H45.0264V56.071ZM46.4464 55.4829C46.0698 55.8595 45.559 56.071 45.0264 56.071V56.571C45.6916 56.571 46.3296 56.3068 46.7999 55.8364L46.4464 55.4829ZM47.0345 54.063C47.0345 54.5955 46.8229 55.1063 46.4464 55.4829L46.7999 55.8364C47.2703 55.3661 47.5345 54.7281 47.5345 54.063H47.0345ZM46.4464 52.643C46.8229 53.0196 47.0345 53.5304 47.0345 54.063H47.5345C47.5345 53.3978 47.2703 52.7598 46.7999 52.2895L46.4464 52.643ZM45.0264 52.0549C45.559 52.0549 46.0698 52.2664 46.4464 52.643L46.7999 52.2895C46.3296 51.8191 45.6916 51.5549 45.0264 51.5549V52.0549ZM16.8167 48.2428L13.2377 51.8218L13.5912 52.1754L17.1702 48.5963L16.8167 48.2428ZM18.5911 47.5078C17.9255 47.5078 17.2873 47.7722 16.8167 48.2428L17.1702 48.5963C17.5471 48.2195 18.0581 48.0078 18.5911 48.0078V47.5078ZM20.3654 48.2428C19.8948 47.7722 19.2566 47.5078 18.5911 47.5078V48.0078C19.124 48.0078 19.635 48.2195 20.0119 48.5963L20.3654 48.2428ZM21.1004 50.0171C21.1004 49.3516 20.836 48.7134 20.3654 48.2428L20.0119 48.5963C20.3887 48.9731 20.6004 49.4842 20.6004 50.0171H21.1004ZM20.3654 51.7915C20.836 51.3209 21.1004 50.6826 21.1004 50.0171H20.6004C20.6004 50.55 20.3887 51.0611 20.0119 51.4379L20.3654 51.7915ZM14.3928 57.7641L20.3654 51.7915L20.0119 51.4379L14.0393 57.4105L14.3928 57.7641ZM13.9448 58.0652C14.1128 57.9952 14.2654 57.8926 14.3936 57.7633L14.0386 57.4112C13.9568 57.4936 13.8596 57.559 13.7525 57.6037L13.9448 58.0652ZM13.4144 58.1713C13.5965 58.1713 13.7767 58.1352 13.9448 58.0652L13.7525 57.6037C13.6454 57.6483 13.5305 57.6713 13.4144 57.6713V58.1713ZM12.8841 58.0652C13.0521 58.1352 13.2324 58.1713 13.4144 58.1713V57.6713C13.2984 57.6713 13.1835 57.6483 13.0764 57.6037L12.8841 58.0652ZM12.4353 57.7633C12.5635 57.8926 12.716 57.9952 12.8841 58.0652L13.0764 57.6037C12.9693 57.559 12.872 57.4936 12.7903 57.4112L12.4353 57.7633ZM9.85056 55.1786L12.4361 57.7641L12.7896 57.4105L10.2041 54.825L9.85056 55.1786ZM9.1156 53.4042C9.1156 54.0697 9.37998 54.708 9.85056 55.1786L10.2041 54.825C9.8273 54.4482 9.6156 53.9371 9.6156 53.4042H9.1156ZM9.85056 51.6299C9.37998 52.1005 9.1156 52.7387 9.1156 53.4042H9.6156C9.6156 52.8713 9.8273 52.3602 10.2041 51.9834L9.85056 51.6299ZM11.6249 50.8949C10.9594 50.8949 10.3212 51.1593 9.85057 51.6299L10.2041 51.9834C10.5809 51.6066 11.092 51.3949 11.6249 51.3949V50.8949ZM13.3993 51.6299C12.9287 51.1593 12.2904 50.8949 11.6249 50.8949V51.3949C12.1578 51.3949 12.6689 51.6066 13.0457 51.9834L13.3993 51.6299ZM13.5912 51.8218L13.3993 51.6299L13.0457 51.9834L13.2377 52.1754L13.5912 51.8218Z" fill="white"></path> </svg> 