<?xml version="1.0" encoding="UTF-8"?> <svg xmlns="http://www.w3.org/2000/svg" width="69" height="69" viewBox="0 0 69 69" fill="none"> <path fill-rule="evenodd" clip-rule="evenodd" d="M51.7678 2H65.9845C66.5461 2 67.0001 2.45398 67.0001 3.01562V17.2323C67.0001 17.7939 66.5461 18.2479 65.9845 18.2479C65.4228 18.2479 64.9688 17.7939 64.9688 17.2323V4.03124H51.7678C51.2062 4.03124 50.7522 3.57726 50.7522 3.01562C50.7522 2.45398 51.2062 2 51.7678 2ZM3.01562 18.2484C3.57726 18.2484 4.03124 17.7944 4.03124 17.2327V4.0317H17.2323C17.7939 4.0317 18.2479 3.57771 18.2479 3.01607C18.2479 2.45444 17.7939 2.00045 17.2323 2.00045H3.01562C2.45398 2.00045 2 2.45444 2 3.01607V17.2327C2 17.7944 2.45398 18.2484 3.01562 18.2484ZM4.03197 51.7675V64.9686H17.233C17.7947 64.9686 18.2486 65.4225 18.2486 65.9842C18.2486 66.5458 17.7947 66.9998 17.233 66.9998H3.01635C2.45471 66.9998 2.00073 66.5458 2.00073 65.9842V51.7675C2.00073 51.2059 2.45471 50.7519 3.01635 50.7519C3.57799 50.7519 4.03197 51.2059 4.03197 51.7675ZM64.9692 51.7675C64.9692 51.2059 65.4232 50.7519 65.9849 50.7519C66.5465 50.7519 67.0005 51.2059 67.0005 51.7675V65.9842C67.0005 66.5458 66.5465 66.9998 65.9849 66.9998H51.7682C51.2066 66.9998 50.7526 66.5458 50.7526 65.9842C50.7526 65.4225 51.2066 64.9686 51.7682 64.9686H64.9692V51.7675ZM35.1874 23.2241C34.9198 23.2241 34.6635 23.3313 34.4756 23.5217L25.7937 32.3197L17.2409 27.5046C16.9047 27.3153 16.4895 27.3363 16.1742 27.5586C15.8588 27.7809 15.6995 28.1648 15.7647 28.5451L19.8618 52.4186C19.9442 52.8986 20.3604 53.2495 20.8474 53.2495H49.5288C50.0158 53.2495 50.432 52.8986 50.5143 52.4186L54.6115 28.5451C54.6767 28.1649 54.5174 27.781 54.202 27.5587C53.8867 27.3363 53.4716 27.3153 53.1354 27.5046L44.5811 32.3197L35.8991 23.5217C35.7112 23.3313 35.4549 23.2241 35.1874 23.2241ZM35.1874 25.6478L43.6941 34.2683C44.0109 34.5893 44.5034 34.6585 44.8964 34.4373L52.2848 30.2784L48.6858 51.2495H21.6904L18.0915 30.2786L25.4783 34.4373C25.8713 34.6585 26.3638 34.5893 26.6806 34.2683L35.1874 25.6478ZM35.4521 12.3253C35.4521 11.773 35.0043 11.3253 34.4521 11.3253C33.8998 11.3253 33.4521 11.773 33.4521 12.3253V17.4879C33.4521 18.0402 33.8998 18.4879 34.4521 18.4879C35.0043 18.4879 35.4521 18.0402 35.4521 17.4879V12.3253ZM20.2032 16.0263C19.7019 16.2579 19.4832 16.8521 19.7149 17.3535L21.8803 22.04C22.1119 22.5413 22.7062 22.76 23.2075 22.5283C23.7089 22.2967 23.9275 21.7025 23.6959 21.2011L21.5305 16.5146C21.2988 16.0132 20.7046 15.7946 20.2032 16.0263ZM49.3254 17.3535C49.557 16.8521 49.3384 16.2579 48.8371 16.0263C48.3357 15.7946 47.7415 16.0132 47.5098 16.5146L45.3444 21.2011C45.1128 21.7025 45.3314 22.2967 45.8328 22.5283C46.3341 22.76 46.9283 22.5413 47.16 22.04L49.3254 17.3535Z" fill="#C2AC95"></path> <path d="M64.9688 4.03124H66.0688V2.93124H64.9688V4.03124ZM4.03124 4.0317V2.9317H2.93124V4.0317H4.03124ZM4.03197 64.9686H2.93197V66.0686H4.03197V64.9686ZM64.9692 64.9686V66.0686H66.0692V64.9686H64.9692ZM34.4756 23.5217L33.6926 22.749L33.6926 22.749L34.4756 23.5217ZM25.7937 32.3197L25.254 33.2782L25.9864 33.6905L26.5766 33.0923L25.7937 32.3197ZM17.2409 27.5046L16.7013 28.4631H16.7013L17.2409 27.5046ZM15.7647 28.5451L14.6806 28.7312L14.6806 28.7312L15.7647 28.5451ZM19.8618 52.4186L18.7777 52.6047V52.6047L19.8618 52.4186ZM50.5143 52.4186L49.4302 52.2326L49.4302 52.2326L50.5143 52.4186ZM54.6115 28.5451L53.5273 28.3591L54.6115 28.5451ZM53.1354 27.5046L52.5958 26.546V26.546L53.1354 27.5046ZM44.5811 32.3197L43.7981 33.0924L44.3884 33.6905L45.1207 33.2783L44.5811 32.3197ZM35.8991 23.5217L36.6821 22.749V22.749L35.8991 23.5217ZM43.6941 34.2683L42.9111 35.0409L42.9111 35.0409L43.6941 34.2683ZM35.1874 25.6478L35.9703 24.8751L35.1874 24.0817L34.4044 24.8751L35.1874 25.6478ZM44.8964 34.4373L45.436 35.3959L44.8964 34.4373ZM52.2848 30.2784L53.3689 30.4645L53.76 28.1857L51.7452 29.3199L52.2848 30.2784ZM48.6858 51.2495V52.3495H49.6131L49.7699 51.4356L48.6858 51.2495ZM21.6904 51.2495L20.6063 51.4356L20.7631 52.3495H21.6904V51.2495ZM18.0915 30.2786L18.6311 29.3201L16.6162 28.1857L17.0073 30.4647L18.0915 30.2786ZM25.4783 34.4373L24.9386 35.3958L25.4783 34.4373ZM26.6806 34.2683L27.4636 35.0409L27.4636 35.0409L26.6806 34.2683ZM19.7149 17.3535L18.7163 17.8149L19.7149 17.3535ZM21.8803 22.04L22.8788 21.5786L21.8803 22.04ZM23.6959 21.2011L24.6944 20.7397L23.6959 21.2011ZM21.5305 16.5146L20.5319 16.976V16.976L21.5305 16.5146ZM49.3254 17.3535L50.324 17.8149V17.8149L49.3254 17.3535ZM47.5098 16.5146L46.5113 16.0532L47.5098 16.5146ZM45.3444 21.2011L46.343 21.6625L45.3444 21.2011ZM47.16 22.04L46.1614 21.5786V21.5786L47.16 22.04ZM65.9845 0.9H51.7678V3.1H65.9845V0.9ZM68.1001 3.01562C68.1001 1.84647 67.1536 0.9 65.9845 0.9V3.1C65.9386 3.1 65.9001 3.06149 65.9001 3.01562H68.1001ZM68.1001 17.2323V3.01562H65.9001V17.2323H68.1001ZM65.9845 19.3479C67.1536 19.3479 68.1001 18.4014 68.1001 17.2323H65.9001C65.9001 17.1864 65.9386 17.1479 65.9845 17.1479V19.3479ZM63.8688 17.2323C63.8688 18.4014 64.8153 19.3479 65.9845 19.3479V17.1479C66.0303 17.1479 66.0688 17.1864 66.0688 17.2323H63.8688ZM63.8688 4.03124V17.2323H66.0688V4.03124H63.8688ZM51.7678 5.13124H64.9688V2.93124H51.7678V5.13124ZM49.6522 3.01562C49.6522 4.18477 50.5986 5.13124 51.7678 5.13124V2.93124C51.8137 2.93124 51.8522 2.96975 51.8522 3.01562H49.6522ZM51.7678 0.9C50.5986 0.9 49.6522 1.84647 49.6522 3.01562H51.8522C51.8522 3.0615 51.8137 3.1 51.7678 3.1V0.9ZM2.93124 17.2327C2.93124 17.1869 2.96975 17.1484 3.01562 17.1484V19.3484C4.18477 19.3484 5.13124 18.4019 5.13124 17.2327H2.93124ZM2.93124 4.0317V17.2327H5.13124V4.0317H2.93124ZM17.2323 2.9317H4.03124V5.1317H17.2323V2.9317ZM17.1479 3.01607C17.1479 2.9702 17.1864 2.9317 17.2323 2.9317V5.1317C18.4014 5.1317 19.3479 4.18523 19.3479 3.01607H17.1479ZM17.2323 3.10045C17.1864 3.10045 17.1479 3.06195 17.1479 3.01607H19.3479C19.3479 1.84692 18.4014 0.900454 17.2323 0.900454V3.10045ZM3.01562 3.10045H17.2323V0.900454H3.01562V3.10045ZM3.1 3.01607C3.1 3.06195 3.0615 3.10045 3.01562 3.10045V0.900454C1.84647 0.900454 0.9 1.84692 0.9 3.01607H3.1ZM3.1 17.2327V3.01607H0.9V17.2327H3.1ZM3.01562 17.1484C3.0615 17.1484 3.1 17.1869 3.1 17.2327H0.9C0.9 18.4019 1.84647 19.3484 3.01562 19.3484V17.1484ZM5.13197 64.9686V51.7675H2.93197V64.9686H5.13197ZM17.233 63.8686H4.03197V66.0686H17.233V63.8686ZM19.3486 65.9842C19.3486 64.815 18.4022 63.8686 17.233 63.8686V66.0686C17.1871 66.0686 17.1486 66.0301 17.1486 65.9842H19.3486ZM17.233 68.0998C18.4022 68.0998 19.3486 67.1533 19.3486 65.9842H17.1486C17.1486 65.9383 17.1871 65.8998 17.233 65.8998V68.0998ZM3.01635 68.0998H17.233V65.8998H3.01635V68.0998ZM0.900727 65.9842C0.900727 67.1533 1.8472 68.0998 3.01635 68.0998V65.8998C3.06222 65.8998 3.10073 65.9383 3.10073 65.9842H0.900727ZM0.900727 51.7675V65.9842H3.10073V51.7675H0.900727ZM3.01635 49.6519C1.8472 49.6519 0.900727 50.5984 0.900727 51.7675H3.10073C3.10073 51.8134 3.06222 51.8519 3.01635 51.8519V49.6519ZM5.13197 51.7675C5.13197 50.5984 4.1855 49.6519 3.01635 49.6519V51.8519C2.97047 51.8519 2.93197 51.8134 2.93197 51.7675H5.13197ZM65.9849 49.6519C64.8157 49.6519 63.8692 50.5984 63.8692 51.7675H66.0692C66.0692 51.8134 66.0307 51.8519 65.9849 51.8519V49.6519ZM68.1005 51.7675C68.1005 50.5984 67.154 49.6519 65.9849 49.6519V51.8519C65.939 51.8519 65.9005 51.8134 65.9005 51.7675H68.1005ZM68.1005 65.9842V51.7675H65.9005V65.9842H68.1005ZM65.9849 68.0998C67.154 68.0998 68.1005 67.1533 68.1005 65.9842H65.9005C65.9005 65.9383 65.939 65.8998 65.9849 65.8998V68.0998ZM51.7682 68.0998H65.9849V65.8998H51.7682V68.0998ZM49.6526 65.9842C49.6526 67.1533 50.599 68.0998 51.7682 68.0998V65.8998C51.8141 65.8998 51.8526 65.9383 51.8526 65.9842H49.6526ZM51.7682 63.8686C50.599 63.8686 49.6526 64.815 49.6526 65.9842H51.8526C51.8526 66.0301 51.8141 66.0686 51.7682 66.0686V63.8686ZM64.9692 63.8686H51.7682V66.0686H64.9692V63.8686ZM63.8692 51.7675V64.9686H66.0692V51.7675H63.8692ZM35.2585 24.2943C35.2397 24.3133 35.2141 24.3241 35.1874 24.3241V22.1241C34.6256 22.1241 34.0872 22.3492 33.6926 22.749L35.2585 24.2943ZM26.5766 33.0923L35.2585 24.2943L33.6926 22.749L25.0107 31.547L26.5766 33.0923ZM16.7013 28.4631L25.254 33.2782L26.3333 31.3611L17.7805 26.5461L16.7013 28.4631ZM16.8079 28.4577C16.7764 28.4799 16.7349 28.4821 16.7013 28.4631L17.7805 26.5461C17.0745 26.1485 16.2027 26.1927 15.5404 26.6595L16.8079 28.4577ZM16.8489 28.3591C16.8554 28.3971 16.8395 28.4355 16.8079 28.4577L15.5404 26.6595C14.8781 27.1264 14.5435 27.9326 14.6806 28.7312L16.8489 28.3591ZM20.946 52.2326L16.8489 28.3591L14.6806 28.7312L18.7777 52.6047L20.946 52.2326ZM20.8474 52.1495C20.8961 52.1495 20.9378 52.1846 20.946 52.2326L18.7777 52.6047C18.9507 53.6127 19.8247 54.3495 20.8474 54.3495V52.1495ZM49.5288 52.1495H20.8474V54.3495H49.5288V52.1495ZM49.4302 52.2326C49.4384 52.1846 49.4801 52.1495 49.5288 52.1495V54.3495C50.5515 54.3495 51.4255 53.6127 51.5985 52.6047L49.4302 52.2326ZM53.5273 28.3591L49.4302 52.2326L51.5985 52.6047L55.6956 28.7312L53.5273 28.3591ZM53.5683 28.4577C53.5367 28.4355 53.5208 28.3971 53.5273 28.3591L55.6956 28.7312C55.8327 27.9326 55.4981 27.1264 54.8358 26.6596L53.5683 28.4577ZM53.6749 28.4631C53.6413 28.482 53.5998 28.4799 53.5683 28.4577L54.8358 26.6596C54.1736 26.1927 53.3019 26.1485 52.5958 26.546L53.6749 28.4631ZM45.1207 33.2783L53.6749 28.4631L52.5958 26.546L44.0415 31.3611L45.1207 33.2783ZM35.1162 24.2943L43.7981 33.0924L45.364 31.5471L36.6821 22.749L35.1162 24.2943ZM35.1874 24.3241C35.1606 24.3241 35.135 24.3133 35.1162 24.2943L36.6821 22.749C36.2875 22.3492 35.7491 22.1241 35.1874 22.1241V24.3241ZM44.4771 33.4956L35.9703 24.8751L34.4044 26.4204L42.9111 35.0409L44.4771 33.4956ZM44.3568 33.4787C44.3961 33.4566 44.4454 33.4635 44.4771 33.4956L42.9111 35.0409C43.5764 35.7151 44.6106 35.8605 45.436 35.3959L44.3568 33.4787ZM51.7452 29.3199L44.3568 33.4787L45.436 35.3959L52.8243 31.237L51.7452 29.3199ZM49.7699 51.4356L53.3689 30.4645L51.2006 30.0924L47.6016 51.0634L49.7699 51.4356ZM21.6904 52.3495H48.6858V50.1495H21.6904V52.3495ZM17.0073 30.4647L20.6063 51.4356L22.7746 51.0634L19.1756 30.0926L17.0073 30.4647ZM26.0179 33.4787L18.6311 29.3201L17.5518 31.2371L24.9386 35.3958L26.0179 33.4787ZM25.8977 33.4956C25.9293 33.4635 25.9786 33.4566 26.0179 33.4787L24.9386 35.3958C25.764 35.8605 26.7983 35.7151 27.4636 35.0409L25.8977 33.4956ZM34.4044 24.8751L25.8977 33.4956L27.4636 35.0409L35.9703 26.4204L34.4044 24.8751ZM34.4521 12.4253C34.3968 12.4253 34.3521 12.3805 34.3521 12.3253H36.5521C36.5521 11.1655 35.6119 10.2253 34.4521 10.2253V12.4253ZM34.5521 12.3253C34.5521 12.3805 34.5073 12.4253 34.4521 12.4253V10.2253C33.2923 10.2253 32.3521 11.1655 32.3521 12.3253H34.5521ZM34.5521 17.4879V12.3253H32.3521V17.4879H34.5521ZM34.4521 17.3879C34.5073 17.3879 34.5521 17.4327 34.5521 17.4879H32.3521C32.3521 18.6477 33.2923 19.5879 34.4521 19.5879V17.3879ZM34.3521 17.4879C34.3521 17.4327 34.3968 17.3879 34.4521 17.3879V19.5879C35.6119 19.5879 36.5521 18.6477 36.5521 17.4879H34.3521ZM34.3521 12.3253V17.4879H36.5521V12.3253H34.3521ZM20.7134 16.8921C20.7366 16.9422 20.7148 17.0017 20.6646 17.0248L19.7418 15.0277C18.689 15.5142 18.2299 16.762 18.7163 17.8149L20.7134 16.8921ZM22.8788 21.5786L20.7134 16.8921L18.7163 17.8149L20.8817 22.5014L22.8788 21.5786ZM22.7461 21.5298C22.7963 21.5066 22.8557 21.5285 22.8788 21.5786L20.8817 22.5014C21.3682 23.5542 22.6161 24.0133 23.6689 23.5269L22.7461 21.5298ZM22.6973 21.6625C22.6741 21.6123 22.696 21.5529 22.7461 21.5298L23.6689 23.5269C24.7217 23.0404 25.1809 21.7926 24.6944 20.7397L22.6973 21.6625ZM20.5319 16.976L22.6973 21.6625L24.6944 20.7397L22.529 16.0532L20.5319 16.976ZM20.6646 17.0248C20.6145 17.048 20.5551 17.0261 20.5319 16.976L22.529 16.0532C22.0425 15.0004 20.7947 14.5412 19.7418 15.0277L20.6646 17.0248ZM48.3757 17.0248C48.3255 17.0017 48.3037 16.9422 48.3268 16.8921L50.324 17.8149C50.8104 16.762 50.3513 15.5142 49.2984 15.0277L48.3757 17.0248ZM48.5084 16.976C48.4852 17.0261 48.4258 17.048 48.3757 17.0248L49.2984 15.0277C48.2456 14.5412 46.9977 15.0004 46.5113 16.0532L48.5084 16.976ZM46.343 21.6625L48.5084 16.976L46.5113 16.0532L44.3459 20.7397L46.343 21.6625ZM46.2942 21.5298C46.3443 21.5529 46.3662 21.6123 46.343 21.6625L44.3459 20.7397C43.8594 21.7926 44.3185 23.0404 45.3714 23.5269L46.2942 21.5298ZM46.1614 21.5786C46.1846 21.5285 46.244 21.5066 46.2942 21.5298L45.3714 23.5269C46.4242 24.0134 47.6721 23.5542 48.1586 22.5014L46.1614 21.5786ZM48.3268 16.8921L46.1614 21.5786L48.1586 22.5014L50.324 17.8149L48.3268 16.8921Z" fill="#C2AC95"></path> </svg> 