<?xml version="1.0" encoding="UTF-8"?> <svg xmlns="http://www.w3.org/2000/svg" width="55" height="82" viewBox="0 0 55 82" fill="none"> <path fill-rule="evenodd" clip-rule="evenodd" d="M51.5492 32.8686L51.5514 32.8749C54.0377 39.7624 57.4427 49.1958 51.0073 58.2057C50.953 58.2814 50.884 58.337 50.8148 58.3928C50.7897 58.413 50.7646 58.4333 50.7401 58.4545C53.024 60.4885 54.4727 63.441 54.4727 66.7327V79.4147C54.4727 80.2902 53.7629 81 52.8874 81H5.32974C4.45429 81 3.74448 80.2902 3.74448 79.4147V66.7327C3.74448 63.8584 4.85215 61.2446 6.65124 59.2715C-0.979554 52.2847 0.137015 40.7282 4.02624 35.1135C5.51009 32.9717 8.55444 21.1085 10.1242 14.1343C11.3039 9.41495 14.0169 5.88682 18.1983 3.61188C24.5014 0.181289 32.2094 0.730866 35.5859 1.88575C42.8852 4.37897 46.8398 11.3857 49.6906 26.8775C50.0069 28.5951 50.7558 30.6703 51.5492 32.8686ZM51.3022 77.8295V66.7327C51.3022 62.9052 48.5744 59.7032 44.9612 58.9666V65.1474C44.9612 65.704 44.6693 66.2203 44.1918 66.5067L36.2655 71.2624C36.0185 71.4103 35.7368 71.4885 35.4496 71.4885H22.7676C22.4804 71.4885 22.1986 71.4103 21.9517 71.2624L14.0254 66.5067C13.5478 66.2203 13.256 65.704 13.256 65.1474V58.9666C9.64275 59.7032 6.91499 62.9052 6.91499 66.7327V77.8295H51.3022ZM25.9381 57.2211C25.9381 58.0966 25.2283 58.8064 24.3528 58.8064H16.4265V64.2495L23.2065 68.3179H35.0107L41.7906 64.2495V58.8064H33.8644C32.9889 58.8064 32.2791 58.0966 32.2791 57.2211V52.4654H29.251H28.9662H25.9381V57.2211ZM28.9662 49.2949H29.251C36.1656 49.2949 41.7906 43.6698 41.7906 36.7552V32.4585C41.7906 30.3948 40.5274 27.2793 39.0869 25.7908C36.7102 23.3351 34.3961 20.7401 32.7064 18.8453L32.7056 18.8444C32.1111 18.178 31.5066 17.5007 31.0027 16.9472C29.0033 20.2315 25.647 25.3658 17.8129 29.8677C16.9575 30.3592 16.4265 31.2726 16.4265 32.2518V36.7552C16.4265 43.6698 22.0516 49.2949 28.9662 49.2949ZM35.4496 55.6359H43.3759C45.1229 55.6359 46.7707 56.0529 48.2424 56.7752L48.2545 56.7398C48.2987 56.6103 48.3431 56.4805 48.4266 56.3635C53.8953 48.7073 51.0661 40.8678 48.569 33.9508C47.7292 31.6248 46.9358 29.4273 46.5727 27.4519C43.386 10.1371 38.9166 6.3737 34.561 4.88597C31.4818 3.83404 24.8382 3.60724 19.7139 6.39615C16.3437 8.22988 14.1555 11.0799 13.2088 14.8674C12.7877 16.739 8.95385 33.5685 6.63324 36.9185C3.74816 41.0838 2.21515 51.3024 9.12578 57.2388C10.7977 56.2284 12.7492 55.6359 14.8413 55.6359H22.7676V51.1857C17.1796 48.7759 13.256 43.2168 13.256 36.7552V32.2518C13.256 30.1409 14.397 28.1741 16.2338 27.1183C23.7622 22.7921 26.6665 17.9907 28.5884 14.8124C28.8671 14.3518 29.1217 13.9323 29.3617 13.56C29.7294 12.9887 30.4222 12.714 31.0816 12.8819C31.7729 13.0569 32.1204 13.4261 35.0711 16.7344L35.1078 16.7755L35.1079 16.7756L35.1079 16.7756C36.8672 18.747 39.0497 21.1926 41.3657 23.5863C43.3821 25.67 44.9612 29.5674 44.9612 32.4585V36.7552C44.9612 43.2168 41.0376 48.7759 35.4496 51.1857V55.6359ZM25.1466 31.0653C25.1466 32.3786 24.082 33.4432 22.7687 33.4432C21.4554 33.4432 20.3908 32.3786 20.3908 31.0653C20.3908 29.752 21.4554 28.6874 22.7687 28.6874C24.082 28.6874 25.1466 29.752 25.1466 31.0653ZM35.4467 33.4432C36.76 33.4432 37.8246 32.3786 37.8246 31.0653C37.8246 29.752 36.76 28.6874 35.4467 28.6874C34.1334 28.6874 33.0688 29.752 33.0688 31.0653C33.0688 32.3786 34.1334 33.4432 35.4467 33.4432ZM32.2896 39.7841C32.2896 41.5351 30.8701 42.9546 29.1191 42.9546C27.368 42.9546 25.9486 41.5351 25.9486 39.7841H32.2896Z" fill="#C2AC95"></path> <path d="M51.5514 32.8749L51.3163 32.9598L51.3163 32.9598L51.5514 32.8749ZM51.5492 32.8686L51.7843 32.7837L51.7843 32.7837L51.5492 32.8686ZM51.0073 58.2057L51.2105 58.3514L51.2107 58.351L51.0073 58.2057ZM50.8148 58.3928L50.9717 58.5875L50.9717 58.5874L50.8148 58.3928ZM50.7401 58.4545L50.5762 58.2657L50.3616 58.4521L50.5739 58.6412L50.7401 58.4545ZM6.65124 59.2715L6.83597 59.4399L7.00407 59.2556L6.82006 59.0871L6.65124 59.2715ZM4.02624 35.1135L3.82074 34.9711L3.82072 34.9711L4.02624 35.1135ZM10.1242 14.1343L9.88161 14.0737L9.88031 14.0794L10.1242 14.1343ZM18.1983 3.61188L18.3178 3.83149L18.3179 3.83147L18.1983 3.61188ZM35.5859 1.88575L35.5049 2.1223L35.505 2.12233L35.5859 1.88575ZM49.6906 26.8775L49.4447 26.9228L49.4447 26.9228L49.6906 26.8775ZM51.3022 77.8295V78.0795H51.5522V77.8295H51.3022ZM44.9612 58.9666L45.0111 58.7217L44.7112 58.6605V58.9666H44.9612ZM44.1918 66.5067L44.0632 66.2923L44.0631 66.2923L44.1918 66.5067ZM36.2655 71.2624L36.3939 71.4769L36.3941 71.4768L36.2655 71.2624ZM21.9517 71.2624L21.8231 71.4768L21.8233 71.4769L21.9517 71.2624ZM14.0254 66.5067L14.1541 66.2923L14.154 66.2923L14.0254 66.5067ZM13.256 58.9666H13.506V58.6605L13.2061 58.7217L13.256 58.9666ZM6.91499 77.8295H6.66499V78.0795H6.91499V77.8295ZM16.4265 58.8064V58.5564H16.1765V58.8064H16.4265ZM16.4265 64.2495H16.1765V64.3911L16.2979 64.4639L16.4265 64.2495ZM23.2065 68.3179L23.0778 68.5323L23.1372 68.5679H23.2065V68.3179ZM35.0107 68.3179V68.5679H35.08L35.1394 68.5323L35.0107 68.3179ZM41.7906 64.2495L41.9193 64.4639L42.0406 64.3911V64.2495H41.7906ZM41.7906 58.8064H42.0406V58.5564H41.7906V58.8064ZM32.2791 52.4654H32.5291V52.2154H32.2791V52.4654ZM25.9381 52.4654V52.2154H25.6881V52.4654H25.9381ZM39.0869 25.7908L39.2665 25.6169L39.2665 25.6169L39.0869 25.7908ZM32.7064 18.8453L32.5198 19.0117L32.5198 19.0117L32.7064 18.8453ZM32.7056 18.8444L32.8922 18.6781L32.8922 18.678L32.7056 18.8444ZM31.0027 16.9472L31.1876 16.7789L30.9628 16.5321L30.7892 16.8172L31.0027 16.9472ZM17.8129 29.8677L17.6883 29.651H17.6883L17.8129 29.8677ZM35.4496 55.6359H35.1996V55.8859H35.4496V55.6359ZM48.2424 56.7752L48.1322 56.9996L48.3869 57.1246L48.4789 56.8562L48.2424 56.7752ZM48.2545 56.7398L48.491 56.8208L48.4911 56.8206L48.2545 56.7398ZM48.4266 56.3635L48.2232 56.2182L48.2231 56.2182L48.4266 56.3635ZM48.569 33.9508L48.8042 33.8659L48.8042 33.8659L48.569 33.9508ZM46.5727 27.4519L46.8186 27.4067L46.8186 27.4066L46.5727 27.4519ZM34.561 4.88597L34.4802 5.12255L34.4802 5.12255L34.561 4.88597ZM19.7139 6.39615L19.8334 6.61575L19.8334 6.61573L19.7139 6.39615ZM13.2088 14.8674L12.9662 14.8067L12.9649 14.8125L13.2088 14.8674ZM6.63324 36.9185L6.42773 36.7762L6.42773 36.7762L6.63324 36.9185ZM9.12578 57.2388L8.96288 57.4285L9.10018 57.5464L9.25509 57.4528L9.12578 57.2388ZM22.7676 55.6359V55.8859H23.0176V55.6359H22.7676ZM22.7676 51.1857H23.0176V51.0212L22.8666 50.9561L22.7676 51.1857ZM16.2338 27.1183L16.1092 26.9015L16.1092 26.9015L16.2338 27.1183ZM28.5884 14.8124L28.3745 14.683L28.3745 14.683L28.5884 14.8124ZM29.3617 13.56L29.5718 13.6954L29.5719 13.6953L29.3617 13.56ZM31.0816 12.8819L31.0199 13.1242L31.0203 13.1243L31.0816 12.8819ZM35.0711 16.7344L34.8845 16.9008L34.8846 16.9008L35.0711 16.7344ZM35.1078 16.7755L35.2977 16.6128L35.2944 16.6091L35.1078 16.7755ZM35.1079 16.7756L34.9181 16.9383L34.9243 16.9456L34.9311 16.9524L35.1079 16.7756ZM35.1079 16.7756L35.2944 16.6092L35.2897 16.6039L35.2847 16.5988L35.1079 16.7756ZM41.3657 23.5863L41.186 23.7601L41.186 23.7601L41.3657 23.5863ZM35.4496 51.1857L35.3506 50.9561L35.1996 51.0212V51.1857H35.4496ZM32.2896 39.7841H32.5396V39.5341H32.2896V39.7841ZM25.9486 39.7841V39.5341H25.6986V39.7841H25.9486ZM51.7866 32.79L51.7843 32.7837L51.314 32.9534L51.3163 32.9598L51.7866 32.79ZM51.2107 58.351C57.7315 49.2216 54.2671 39.6618 51.7866 32.79L51.3163 32.9598C53.8082 39.8631 57.154 49.1699 50.8038 58.0604L51.2107 58.351ZM50.9717 58.5874C51.0372 58.5347 51.1333 58.459 51.2105 58.3514L50.8041 58.0601C50.7727 58.1038 50.7308 58.1394 50.658 58.1981L50.9717 58.5874ZM50.904 58.6433C50.9244 58.6255 50.946 58.6082 50.9717 58.5875L50.658 58.1981C50.6335 58.2179 50.6047 58.241 50.5762 58.2657L50.904 58.6433ZM54.7227 66.7327C54.7227 63.3659 53.2406 60.3466 50.9064 58.2678L50.5739 58.6412C52.8074 60.6304 54.2227 63.5162 54.2227 66.7327H54.7227ZM54.7227 79.4147V66.7327H54.2227V79.4147H54.7227ZM52.8874 81.25C53.901 81.25 54.7227 80.4283 54.7227 79.4147H54.2227C54.2227 80.1521 53.6248 80.75 52.8874 80.75V81.25ZM5.32974 81.25H52.8874V80.75H5.32974V81.25ZM3.49448 79.4147C3.49448 80.4283 4.31621 81.25 5.32974 81.25V80.75C4.59236 80.75 3.99448 80.1521 3.99448 79.4147H3.49448ZM3.49448 66.7327V79.4147H3.99448V66.7327H3.49448ZM6.4665 59.1031C4.62774 61.1196 3.49448 63.7928 3.49448 66.7327H3.99448C3.99448 63.9241 5.07655 61.3695 6.83597 59.4399L6.4665 59.1031ZM3.82072 34.9711C1.84132 37.8287 0.578398 42.1768 0.768955 46.6885C0.959725 51.2053 2.6086 55.909 6.48241 59.4559L6.82006 59.0871C3.06309 55.6472 1.45485 51.0793 1.26851 46.6674C1.08196 42.2505 2.32193 38.013 4.23175 35.2558L3.82072 34.9711ZM9.88031 14.0794C9.09615 17.5633 7.94362 22.2685 6.80216 26.369C6.23136 28.4195 5.66409 30.3161 5.14765 31.832C4.62718 33.3599 4.16855 34.469 3.82074 34.9711L4.23174 35.2558C4.62585 34.687 5.10421 33.5101 5.62094 31.9933C6.14171 30.4646 6.71185 28.5579 7.28385 26.5031C8.42797 22.393 9.58249 17.6796 10.3681 14.1892L9.88031 14.0794ZM18.0789 3.39228C13.8347 5.70134 11.0779 9.28786 9.88167 14.0737L10.3667 14.195C11.5298 9.54204 14.1991 6.0723 18.3178 3.83149L18.0789 3.39228ZM35.6668 1.6492C33.9432 1.05967 31.1398 0.631298 27.9779 0.779537C24.8138 0.92788 21.2718 1.65448 18.0788 3.3923L18.3179 3.83147C21.428 2.1387 24.8915 1.42478 28.0013 1.27899C31.1133 1.13309 33.8521 1.55695 35.5049 2.1223L35.6668 1.6492ZM49.9365 26.8323C47.0854 11.3389 43.1113 4.19202 35.6667 1.64917L35.505 2.12233C42.6591 4.56592 46.5942 11.4325 49.4447 26.9228L49.9365 26.8323ZM51.7843 32.7837C50.9885 30.5786 50.2482 28.5251 49.9365 26.8323L49.4447 26.9228C49.7656 28.6651 50.5231 30.762 51.314 32.9535L51.7843 32.7837ZM51.0522 66.7327V77.8295H51.5522V66.7327H51.0522ZM44.9112 59.2116C48.4106 59.925 51.0522 63.0266 51.0522 66.7327H51.5522C51.5522 62.7838 48.7382 59.4815 45.0111 58.7217L44.9112 59.2116ZM45.2112 65.1474V58.9666H44.7112V65.1474H45.2112ZM44.3203 66.7211C44.8734 66.3894 45.2112 65.7916 45.2112 65.1474H44.7112C44.7112 65.6163 44.4653 66.0511 44.0632 66.2923L44.3203 66.7211ZM36.3941 71.4768L44.3204 66.721L44.0631 66.2923L36.1368 71.0481L36.3941 71.4768ZM35.4496 71.7385C35.7822 71.7385 36.1084 71.6479 36.3939 71.4769L36.137 71.0479C35.9287 71.1727 35.6913 71.2385 35.4496 71.2385V71.7385ZM22.7676 71.7385H35.4496V71.2385H22.7676V71.7385ZM21.8233 71.4769C22.1088 71.6479 22.4349 71.7385 22.7676 71.7385V71.2385C22.5258 71.2385 22.2884 71.1727 22.0801 71.0479L21.8233 71.4769ZM13.8968 66.721L21.8231 71.4768L22.0803 71.0481L14.1541 66.2923L13.8968 66.721ZM13.006 65.1474C13.006 65.7916 13.3438 66.3894 13.8969 66.7211L14.154 66.2923C13.7519 66.0511 13.506 65.6163 13.506 65.1474H13.006ZM13.006 58.9666V65.1474H13.506V58.9666H13.006ZM7.16499 66.7327C7.16499 63.0266 9.80656 59.925 13.306 59.2116L13.2061 58.7217C9.47895 59.4815 6.66499 62.7838 6.66499 66.7327H7.16499ZM7.16499 77.8295V66.7327H6.66499V77.8295H7.16499ZM51.3022 77.5795H6.91499V78.0795H51.3022V77.5795ZM24.3528 59.0564C25.3663 59.0564 26.1881 58.2347 26.1881 57.2211H25.6881C25.6881 57.9585 25.0902 58.5564 24.3528 58.5564V59.0564ZM16.4265 59.0564H24.3528V58.5564H16.4265V59.0564ZM16.6765 64.2495V58.8064H16.1765V64.2495H16.6765ZM23.3351 68.1036L16.5552 64.0352L16.2979 64.4639L23.0778 68.5323L23.3351 68.1036ZM35.0107 68.0679H23.2065V68.5679H35.0107V68.0679ZM41.662 64.0352L34.8821 68.1036L35.1394 68.5323L41.9193 64.4639L41.662 64.0352ZM41.5406 58.8064V64.2495H42.0406V58.8064H41.5406ZM33.8644 59.0564H41.7906V58.5564H33.8644V59.0564ZM32.0291 57.2211C32.0291 58.2347 32.8508 59.0564 33.8644 59.0564V58.5564C33.127 58.5564 32.5291 57.9585 32.5291 57.2211H32.0291ZM32.0291 52.4654V57.2211H32.5291V52.4654H32.0291ZM29.251 52.7154H32.2791V52.2154H29.251V52.7154ZM28.9662 52.7154H29.251V52.2154H28.9662V52.7154ZM25.9381 52.7154H28.9662V52.2154H25.9381V52.7154ZM26.1881 57.2211V52.4654H25.6881V57.2211H26.1881ZM29.251 49.0449H28.9662V49.5449H29.251V49.0449ZM41.5406 36.7552C41.5406 43.5317 36.0275 49.0449 29.251 49.0449V49.5449C36.3037 49.5449 42.0406 43.8079 42.0406 36.7552H41.5406ZM41.5406 32.4585V36.7552H42.0406V32.4585H41.5406ZM38.9072 25.9646C39.5975 26.6779 40.2585 27.7975 40.7473 29.0029C41.2361 30.2084 41.5406 31.47 41.5406 32.4585H42.0406C42.0406 31.3833 41.7136 30.0554 41.2106 28.815C40.7077 27.5746 40.0167 26.3921 39.2665 25.6169L38.9072 25.9646ZM32.5198 19.0117C34.2091 20.9061 36.5264 23.5048 38.9072 25.9646L39.2665 25.6169C36.8939 23.1654 34.583 20.5742 32.893 18.679L32.5198 19.0117ZM32.519 19.0108L32.5198 19.0117L32.893 18.679L32.8922 18.6781L32.519 19.0108ZM30.8178 17.1156C31.3207 17.6679 31.9244 18.3442 32.519 19.0109L32.8922 18.678C32.2979 18.0118 31.6925 17.3335 31.1876 16.7789L30.8178 17.1156ZM17.9374 30.0845C25.823 25.553 29.2061 20.3792 31.2162 17.0772L30.7892 16.8172C28.8005 20.0839 25.4711 25.1786 17.6883 29.651L17.9374 30.0845ZM16.6765 32.2518C16.6765 31.3629 17.159 30.5318 17.9374 30.0845L17.6883 29.651C16.7561 30.1867 16.1765 31.1823 16.1765 32.2518H16.6765ZM16.6765 36.7552V32.2518H16.1765V36.7552H16.6765ZM28.9662 49.0449C22.1896 49.0449 16.6765 43.5317 16.6765 36.7552H16.1765C16.1765 43.8079 21.9135 49.5449 28.9662 49.5449V49.0449ZM43.3759 55.3859H35.4496V55.8859H43.3759V55.3859ZM48.3525 56.5508C46.8486 55.8126 45.1633 55.3859 43.3759 55.3859V55.8859C45.0826 55.8859 46.6928 56.2932 48.1322 56.9996L48.3525 56.5508ZM48.018 56.6588L48.0059 56.6942L48.4789 56.8562L48.491 56.8208L48.018 56.6588ZM48.2231 56.2182C48.115 56.3696 48.0604 56.5344 48.0179 56.659L48.4911 56.8206C48.5369 56.6863 48.5711 56.5913 48.63 56.5088L48.2231 56.2182ZM48.3339 34.0357C50.8378 40.9716 53.6057 48.6826 48.2232 56.2182L48.63 56.5088C54.1848 48.7321 51.2944 40.7639 48.8042 33.8659L48.3339 34.0357ZM46.3269 27.4971C46.6944 29.4969 47.4961 31.7154 48.3339 34.0357L48.8042 33.8659C47.9622 31.5342 47.1772 29.3576 46.8186 27.4067L46.3269 27.4971ZM34.4802 5.12255C36.6085 5.84951 38.7662 7.12811 40.7933 10.3664C42.8289 13.6185 44.7358 18.8521 46.3269 27.4971L46.8186 27.4066C45.2229 18.7369 43.3017 13.4314 41.2171 10.1012C39.1239 6.75715 36.8691 5.41017 34.6418 4.64939L34.4802 5.12255ZM19.8334 6.61573C22.355 5.24334 25.2588 4.60918 27.9193 4.4503C30.582 4.29129 32.9788 4.60963 34.4802 5.12255L34.6418 4.6494C33.0641 4.11038 30.5994 3.78936 27.8895 3.95119C25.1772 4.11316 22.1971 4.76005 19.5944 6.17656L19.8334 6.61573ZM13.4513 14.928C14.3814 11.2071 16.5259 8.41537 19.8334 6.61575L19.5944 6.17655C16.1615 8.04438 13.9296 10.9528 12.9663 14.8067L13.4513 14.928ZM6.83875 37.0609C7.44234 36.1895 8.12675 34.4757 8.81765 32.4019C9.51226 30.317 10.2237 27.8354 10.8748 25.4032C12.1773 20.5383 13.2419 15.8593 13.4527 14.9222L12.9649 14.8125C12.7546 15.7471 11.6917 20.4186 10.3918 25.2739C9.74183 27.7018 9.03335 30.1726 8.34328 32.2439C7.6495 34.3264 6.98445 35.9725 6.42773 36.7762L6.83875 37.0609ZM9.28869 57.0492C5.89896 54.1373 4.5743 50.172 4.45599 46.4066C4.33746 42.6342 5.43127 39.0929 6.83876 37.0609L6.42773 36.7762C4.95013 38.9094 3.83489 42.5601 3.95624 46.4223C4.07782 50.2916 5.44197 54.4039 8.96288 57.4285L9.28869 57.0492ZM14.8413 55.3859C12.7012 55.3859 10.7053 55.9922 8.99648 57.0249L9.25509 57.4528C10.8902 56.4647 12.7972 55.8859 14.8413 55.8859V55.3859ZM22.7676 55.3859H14.8413V55.8859H22.7676V55.3859ZM22.5176 51.1857V55.6359H23.0176V51.1857H22.5176ZM13.006 36.7552C13.006 43.3205 16.9926 48.9676 22.6686 51.4152L22.8666 50.9561C17.3666 48.5843 13.506 43.1131 13.506 36.7552H13.006ZM13.006 32.2518V36.7552H13.506V32.2518H13.006ZM16.1092 26.9015C14.1952 28.0017 13.006 30.051 13.006 32.2518H13.506C13.506 30.2309 14.5988 28.3464 16.3584 27.335L16.1092 26.9015ZM28.3745 14.683C26.4607 17.8478 23.5833 22.6066 16.1092 26.9015L16.3584 27.335C23.9411 22.9776 26.8722 18.1335 28.8024 14.9418L28.3745 14.683ZM29.1516 13.4246C28.9094 13.8004 28.6529 14.2229 28.3745 14.683L28.8023 14.9418C29.0813 14.4808 29.3341 14.0643 29.5718 13.6954L29.1516 13.4246ZM31.1434 12.6397C30.3791 12.445 29.5771 12.7635 29.1515 13.4247L29.5719 13.6953C29.8817 13.214 30.4652 12.9829 31.0199 13.1242L31.1434 12.6397ZM35.2577 16.568C33.7856 14.9175 32.9536 13.9895 32.4035 13.454C31.8442 12.9096 31.5471 12.7418 31.143 12.6396L31.0203 13.1243C31.3075 13.197 31.5298 13.3013 32.0547 13.8123C32.5888 14.3322 33.4059 15.2429 34.8845 16.9008L35.2577 16.568ZM35.2944 16.6091L35.2576 16.5679L34.8846 16.9008L34.9213 16.942L35.2944 16.6091ZM35.2977 16.6129L35.2977 16.6128L34.918 16.9382L34.9181 16.9383L35.2977 16.6129ZM35.2847 16.5988L35.2847 16.5988L34.9311 16.9524L34.9311 16.9524L35.2847 16.5988ZM41.5454 23.4124C39.2333 21.0229 37.0541 18.5809 35.2944 16.6092L34.9214 16.9421C36.6803 18.9131 38.866 21.3623 41.186 23.7601L41.5454 23.4124ZM45.2112 32.4585C45.2112 30.9722 44.8065 29.2426 44.1513 27.6257C43.4961 26.0088 42.5818 24.4834 41.5453 23.4124L41.186 23.7601C42.166 24.7729 43.0495 26.2381 43.6879 27.8135C44.3263 29.389 44.7112 31.0537 44.7112 32.4585H45.2112ZM45.2112 36.7552V32.4585H44.7112V36.7552H45.2112ZM35.5486 51.4152C41.2246 48.9676 45.2112 43.3205 45.2112 36.7552H44.7112C44.7112 43.1131 40.8506 48.5843 35.3506 50.9561L35.5486 51.4152ZM35.6996 55.6359V51.1857H35.1996V55.6359H35.6996ZM22.7687 33.6932C24.2201 33.6932 25.3966 32.5166 25.3966 31.0653H24.8966C24.8966 32.2405 23.9439 33.1932 22.7687 33.1932V33.6932ZM20.1408 31.0653C20.1408 32.5166 21.3174 33.6932 22.7687 33.6932V33.1932C21.5935 33.1932 20.6408 32.2405 20.6408 31.0653H20.1408ZM22.7687 28.4374C21.3174 28.4374 20.1408 29.6139 20.1408 31.0653H20.6408C20.6408 29.8901 21.5935 28.9374 22.7687 28.9374V28.4374ZM25.3966 31.0653C25.3966 29.6139 24.2201 28.4374 22.7687 28.4374V28.9374C23.9439 28.9374 24.8966 29.8901 24.8966 31.0653H25.3966ZM37.5746 31.0653C37.5746 32.2405 36.6219 33.1932 35.4467 33.1932V33.6932C36.8981 33.6932 38.0746 32.5166 38.0746 31.0653H37.5746ZM35.4467 28.9374C36.6219 28.9374 37.5746 29.8901 37.5746 31.0653H38.0746C38.0746 29.6139 36.8981 28.4374 35.4467 28.4374V28.9374ZM33.3188 31.0653C33.3188 29.8901 34.2715 28.9374 35.4467 28.9374V28.4374C33.9954 28.4374 32.8188 29.6139 32.8188 31.0653H33.3188ZM35.4467 33.1932C34.2715 33.1932 33.3188 32.2405 33.3188 31.0653H32.8188C32.8188 32.5166 33.9954 33.6932 35.4467 33.6932V33.1932ZM29.1191 43.2046C31.0082 43.2046 32.5396 41.6732 32.5396 39.7841H32.0396C32.0396 41.397 30.732 42.7046 29.1191 42.7046V43.2046ZM25.6986 39.7841C25.6986 41.6732 27.2299 43.2046 29.1191 43.2046V42.7046C27.5061 42.7046 26.1986 41.3971 26.1986 39.7841H25.6986ZM32.2896 39.5341H25.9486V40.0341H32.2896V39.5341Z" fill="#C2AC95"></path> </svg> 