<?xml version="1.0" encoding="UTF-8"?> <svg xmlns="http://www.w3.org/2000/svg" width="32" height="32" viewBox="0 0 32 32" fill="none"> <path fill-rule="evenodd" clip-rule="evenodd" d="M3 0C1.34315 0 0 1.34315 0 3V11V13V29C0 30.6569 1.34315 32 3 32H29C30.6569 32 32 30.6569 32 29V13V11V3C32 1.34315 30.6569 0 29 0H3ZM30 11V3C30 2.44772 29.5523 2 29 2H3C2.44772 2 2 2.44772 2 3V11H11.4009C12.7391 9.75883 14.5309 9 16.5 9C18.4691 9 20.2609 9.75883 21.5991 11H30ZM23.135 13C23.6873 14.0449 24 15.2359 24 16.5C24 20.6421 20.6421 24 16.5 24C12.3579 24 9 20.6421 9 16.5C9 15.2359 9.31273 14.0449 9.86505 13H2V29C2 29.5523 2.44772 30 3 30H29C29.5523 30 30 29.5523 30 29V13H23.135ZM28 6C28 6.55228 27.5523 7 27 7C26.4477 7 26 6.55228 26 6C26 5.44772 26.4477 5 27 5C27.5523 5 28 5.44772 28 6ZM29 6C29 7.10457 28.1046 8 27 8C25.8954 8 25 7.10457 25 6C25 4.89543 25.8954 4 27 4C28.1046 4 29 4.89543 29 6ZM16.5 22C19.5376 22 22 19.5376 22 16.5C22 13.4624 19.5376 11 16.5 11C13.4624 11 11 13.4624 11 16.5C11 19.5376 13.4624 22 16.5 22Z" fill="white"></path> </svg> 